<svg width="345" height="100" viewBox="0 0 345 100" fill="none" xmlns="http://www.w3.org/2000/svg">
<path d="M65.408 52.4961L65.7186 52.1854C65.9183 51.9857 66.1402 51.7639 66.3399 51.5642L66.7614 51.1426L68.0483 49.8779L69.8012 48.1694L71.2877 46.7051L72.6856 45.3294L74.1499 43.8872L75.4812 42.556L77.3671 40.7144C77.7221 40.3594 78.0772 40.0266 78.4544 39.6716C79.12 39.0503 79.83 38.4512 80.54 37.8744C81.2056 37.3419 81.8713 36.8316 82.5813 36.3434C83.5575 35.6556 84.556 35.0122 85.5766 34.4131C86.5751 33.8362 87.6179 33.2815 88.6607 32.749C89.6591 32.2831 90.6576 31.8171 91.7004 31.4178C92.2773 31.1737 92.8542 30.9962 93.431 30.7965C93.7195 30.7078 94.0079 30.5968 94.3186 30.5081C91.7226 20.2795 86.9744 10.7388 80.3625 2.50722C79.0756 0.931893 77.1453 0 75.104 0H21.1658C20.6111 0 20.1451 0.443752 20.1451 1.02063C20.1451 1.35345 20.3005 1.64189 20.5667 1.84158C38.9603 15.3317 54.2254 32.6825 65.2749 52.6514L65.408 52.5182V52.4961Z" fill="#00D6B9"/>
<path d="M43.976 99.9556C71.8215 99.9556 96.0948 84.5796 108.742 61.8594C109.186 61.0607 109.629 60.2619 110.029 59.4409C109.407 60.6613 108.697 61.815 107.899 62.9466C107.61 63.3238 107.344 63.7232 107.056 64.1004C106.678 64.5663 106.323 65.0322 105.924 65.476C105.613 65.831 105.303 66.1638 104.992 66.5188C104.349 67.1844 103.661 67.8501 102.951 68.4491C102.551 68.7819 102.174 69.1148 101.753 69.4254C101.287 69.8026 100.776 70.1354 100.288 70.4682C99.9777 70.6901 99.6671 70.8898 99.3342 71.0895C99.0014 71.2892 98.6686 71.4889 98.3136 71.6885C97.6258 72.0657 96.8936 72.4429 96.1836 72.7757C95.5623 73.0642 94.8967 73.3082 94.2532 73.5523C93.5432 73.8186 92.8333 74.0404 92.1011 74.2401C91.0139 74.5507 89.9267 74.7726 88.7951 74.9501C87.9963 75.0832 87.1754 75.172 86.3544 75.2386C85.4891 75.3051 84.6238 75.3273 83.7363 75.3273C82.76 75.3273 81.806 75.2386 80.8075 75.1498C80.0975 75.0611 79.3653 74.9723 78.6331 74.8392C78.0119 74.7283 77.3684 74.5951 76.7472 74.4398C76.4143 74.3511 76.0815 74.2623 75.7487 74.1736C74.8168 73.9295 73.9071 73.6632 72.9753 73.397C72.5093 73.2639 72.0434 73.1307 71.5996 72.9976C70.9118 72.7979 70.224 72.5761 69.5584 72.3764C69.0037 72.1989 68.449 72.0214 67.8943 71.8439C67.3618 71.6664 66.8293 71.511 66.319 71.3113L65.2318 70.9342C64.8102 70.7788 64.3443 70.6235 63.9227 70.4682L62.9908 70.1354C62.3696 69.9135 61.7483 69.6917 61.1492 69.4698C60.7942 69.3367 60.4392 69.2035 60.0842 69.0704C59.6183 68.8929 59.1524 68.6932 58.6642 68.5157C58.1761 68.316 57.6658 68.1163 57.1777 67.9166L56.2014 67.5173L55.0033 67.0291L54.0714 66.6519L53.1173 66.2304L52.2964 65.8532L51.542 65.5204L50.7654 65.1654L49.9888 64.7882L48.9904 64.3222L47.9476 63.8341C47.5704 63.6566 47.2154 63.4791 46.8382 63.3016L45.9063 62.8357C29.3543 54.5818 14.3998 43.4214 1.75283 29.9092C1.37564 29.5098 0.732197 29.4876 0.332819 29.8648C0.133129 30.0423 0 30.3307 0 30.597V78.1895L0.0221924 82.0502C0.0221924 84.2911 1.13159 86.399 2.99535 87.6415C15.1098 95.74 29.3543 100.022 43.9316 100" fill="#3370FF"/>
<path d="M125.84 32.8603C116.433 28.2675 105.672 27.269 95.5985 30.1091C95.177 30.2422 94.7554 30.3531 94.3338 30.4863C94.0454 30.575 93.7569 30.6637 93.4463 30.7747C92.8694 30.9744 92.2704 31.1963 91.7157 31.3959C90.6729 31.7953 89.6744 32.2391 88.676 32.7272C87.6332 33.2375 86.5903 33.7922 85.5919 34.3691C84.5491 34.9682 83.5728 35.6116 82.5965 36.2994C81.9087 36.7875 81.2209 37.2979 80.5553 37.8304C79.8453 38.4072 79.1353 39.0063 78.4696 39.6276C78.0924 39.9604 77.7596 40.2932 77.3824 40.6704L75.4965 42.512L74.1652 43.8432L72.7009 45.2854L71.303 46.6611L69.8165 48.1255L68.0858 49.8561L66.7989 51.1208L66.3774 51.5424C66.1777 51.742 65.9558 51.9639 65.7561 52.1636L65.4455 52.4742L64.9795 52.918C64.802 53.0955 64.6245 53.2508 64.447 53.4061C59.8098 57.6661 54.6401 61.3271 49.0931 64.2781L50.0916 64.744L50.8682 65.1212L51.6447 65.4762L52.3991 65.809L53.22 66.1862L54.1741 66.6078L55.106 66.985L56.3041 67.4731L57.2804 67.8725C57.7685 68.0722 58.2788 68.2719 58.767 68.4716C59.2329 68.6491 59.6989 68.8487 60.187 69.0262C60.542 69.1594 60.897 69.2925 61.252 69.4256C61.8733 69.6697 62.4945 69.8694 63.0936 70.0913L64.0255 70.4241C64.447 70.5794 64.8908 70.7347 65.3345 70.89L66.4217 71.2672C66.9542 71.4447 67.4645 71.6222 67.9971 71.7997C68.5517 71.9772 69.1064 72.1547 69.6611 72.3322C70.3268 72.5541 71.0368 72.7538 71.7024 72.9535C72.1683 73.0866 72.6343 73.2419 73.078 73.3528C74.0099 73.6191 74.9196 73.8854 75.8515 74.1294C76.1843 74.2182 76.5171 74.3069 76.8499 74.3957C77.4712 74.551 78.1146 74.6841 78.7359 74.795C79.4459 74.9282 80.1781 75.0391 80.9103 75.1057C81.9087 75.2166 82.8628 75.2832 83.8391 75.2832C84.7266 75.2832 85.5919 75.2832 86.4572 75.1944C87.2782 75.1279 88.0991 75.0391 88.8978 74.906C90.0072 74.7285 91.1166 74.4844 92.2038 74.196C92.9138 73.9963 93.646 73.7744 94.356 73.5082C94.9995 73.2641 95.6429 73.02 96.2863 72.7316C96.9963 72.3988 97.7286 72.0438 98.4164 71.6444C98.7492 71.4669 99.082 71.2672 99.437 71.0453C99.7698 70.8456 100.08 70.6238 100.391 70.4241C100.879 70.0913 101.39 69.7584 101.855 69.3813C102.277 69.0706 102.676 68.76 103.054 68.405C103.741 67.8059 104.429 67.1625 105.073 66.4747C105.405 66.1418 105.694 65.809 106.005 65.4318C106.382 64.9881 106.781 64.5221 107.136 64.0562C107.425 63.679 107.713 63.3018 107.979 62.9024C108.756 61.7931 109.444 60.6393 110.087 59.4412L110.797 58.0212L117.232 45.1967L117.32 45.0414C119.45 40.4485 122.335 36.3216 125.885 32.8159L125.84 32.8603Z" fill="#133C9A"/>
<path d="M252.091 38.5629C248.852 35.9226 244.17 34.5913 238.091 34.5913C232.012 34.5913 225.91 35.856 219.742 40.937C219.431 41.181 219.409 41.647 219.697 41.9354L225.267 47.5045C225.488 47.7264 225.821 47.7708 226.087 47.5933C230.924 44.6867 234.075 43.7548 237.603 43.7548C242.307 43.7548 244.659 46.0623 244.659 50.6552V52.6521L236.782 52.8961C229.993 53.1402 224.912 54.4049 221.539 56.6902C218.166 58.9756 216.48 62.5256 216.48 67.3403C216.48 72.155 217.745 75.4832 220.23 77.9682C222.737 80.4532 226.154 81.6957 230.525 81.6957C234.075 81.6957 236.937 81.1854 239.156 80.1648C241.042 79.2995 242.861 77.8351 244.659 75.816V80.2092C244.659 80.5864 244.947 80.8748 245.324 80.8748H256.285C256.662 80.8748 256.951 80.5864 256.951 80.2092V50.633C256.951 45.2192 255.331 41.181 252.069 38.5407L252.091 38.5629ZM242.085 70.2025C240.354 71.8444 238.069 72.6875 235.207 72.6875C231.191 72.6875 229.194 70.9347 229.194 67.4513C229.194 65.0106 230.081 63.2134 231.834 62.0153C233.587 60.8171 236.272 60.1737 239.866 60.0628L244.659 59.9074V63.635C244.659 66.3641 243.793 68.5606 242.085 70.2025Z" fill="white"/>
<path d="M344.313 79.8545L329.115 58.1328V58.1106L343.514 36.3889C343.803 35.9451 343.492 35.346 342.96 35.346H330.224C329.536 35.346 328.915 35.6789 328.538 36.2557L316.002 55.1818V18.2394C316.002 17.8622 315.691 17.5737 315.336 17.5737H304.353C303.976 17.5737 303.688 17.8843 303.688 18.2394V80.2761C303.688 80.6533 303.998 80.9417 304.353 80.9417H315.336C315.713 80.9417 316.002 80.6311 316.002 80.2761V60.9728L329.381 80.0986C329.758 80.6311 330.379 80.9639 331.045 80.9639H343.758C344.313 80.9639 344.624 80.3427 344.313 79.8989V79.8545Z" fill="white"/>
<path d="M209.125 80.9192H171.65C170.075 80.9192 168.81 79.6545 168.81 78.0792V18.2168C168.81 17.8175 169.121 17.5068 169.52 17.5068H180.592C180.991 17.5068 181.302 17.8175 181.302 18.2168V68.4054H209.125C209.525 68.4054 209.835 68.716 209.835 69.1154V80.187C209.835 80.5864 209.525 80.897 209.125 80.897V80.9192Z" fill="white"/>
<path d="M296.725 35.2346C287.406 33.4374 281.171 36.6324 277.377 41.78V36.1665C277.377 35.7893 277.089 35.5008 276.712 35.5008H265.751C265.374 35.5008 265.085 35.7893 265.085 36.1665V80.2534C265.085 80.6306 265.374 80.919 265.751 80.919H276.712C277.089 80.919 277.377 80.6306 277.377 80.2534V56.1354C277.377 55.2479 277.466 54.3604 277.71 53.495C279.751 46.2175 289.026 44.62 296.481 46.0844C296.903 46.1731 297.28 45.8403 297.28 45.4187V35.878C297.28 35.5674 297.058 35.279 296.747 35.2124L296.725 35.2346Z" fill="white"/>
</svg>
